<svg id="Logo" xmlns="http://www.w3.org/2000/svg" width="287.913" height="77.263" viewBox="0 0 287.913 77.263">
  <g id="Camada_1" data-name="Camada 1">
    <path id="Caminho_1" data-name="Caminho 1" d="M39.475,0H27.358c0,16.482-.047,27.158-.073,43.64C22.08,27.552,16.862,16.908,11.636,0H0V77.263c3.925-.56,8.138-1.093,12.07-1.606,0-16.148,0-26.079.033-42.227C17.515,49.318,20.84,58.7,26.239,73.811c4.232-.487,8.877-1.08,13.109-1.513q.067-36.149.127-72.3" fill="#e31a13"/>
    <path id="Caminho_2" data-name="Caminho 2" d="M110.29,0H76.713q-.073,35.636-.133,71.312,16.848-1.54,33.73-2.506V56.863c-7.331.447-14.316.92-21.607,1.406,0-6.385,0-11.67.04-18.055,5.332-.093,10.957,0,16.4-.107v-12c-5.4.093-11.1.107-16.4.207,0-6.385,0-9.89.04-16.282,3.332-.04,6.611-.047,9.877-.047h11.676c0-3.472-.087-8.464-.08-11.936" transform="translate(-25.542)" fill="#e31a13"/>
    <path id="Caminho_3" data-name="Caminho 3" d="M176.369.07H139V11.946h1.606c1.626,0,3.246,0,4.872.033s3.246,0,4.872,0H151.6c0,19.154-.047,36.656-.073,55.81,3.952-.147,8.191-.273,12.143-.373,0-19.048.04-36.442.053-55.49,4.179,0,8.5,0,12.663-.04V.05" transform="translate(-46.361 -0.017)" fill="#e31a13"/>
    <path id="Caminho_4" data-name="Caminho 4" d="M240.586,0H206.87V67.093h12.01V39.448h11.557c1.639,0,3.266,0,4.852.033V27.612H218.873V12h21.74V0" transform="translate(-68.998)" fill="#e31a13"/>
    <path id="Caminho_5" data-name="Caminho 5" d="M269.243.08c0,22.58-.08,45.16-.047,67.746,10.777.4,22.1.833,32.87,1.58V57.463c-6.811-.4-13.909-.88-20.727-1.166-.033-19.327.073-36.876.047-56.216H269.243" transform="translate(-89.783 -0.027)" fill="#e31a13"/>
    <path id="Caminho_6" data-name="Caminho 6" d="M333.44.08l.14,70.059c3.952.307,8.038.666,12,.986V.08H333.44" transform="translate(-111.214 -0.027)" fill="#e31a13"/>
    <path id="Caminho_7" data-name="Caminho 7" d="M366.606.09c4.845,11.8,9.284,23.646,14.2,36.182-5.112,12.05-10.324,23.993-15.429,35.569,4.232.413,8.611,1.026,12.843,1.5,3.032-7.444,5.792-13.169,8.831-20.814,3.032,8.144,5.785,14.429,8.811,22.833,4.225.547,9.7,1.333,13.916,1.933-5.112-13.663-10.7-27.9-15.842-40.814,5.118-12.13,10.337-23.706,15.655-36.389H396.357c-3.279,7.838-5.538,12.876-8.664,20.334-2.946-7.731-4.912-12.783-7.851-20.334H366.606" transform="translate(-121.867 -0.03)" fill="#e31a13"/>
  </g>
</svg>